<?xml version="1.0" encoding="iso-8859-1"?>
<!-- Generator: Adobe Illustrator 19.0.0, SVG Export Plug-In . SVG Version: 6.00 Build 0)  -->
<!-- License: CC0. Made by SVG Repo: https://www.svgrepo.com/svg/201429/tic-tac-toe -->
<svg version="1.1" id="Layer_1" xmlns="http://www.w3.org/2000/svg" xmlns:xlink="http://www.w3.org/1999/xlink" x="0px" y="0px"
	 viewBox="0 0 512 512" style="enable-background:new 0 0 512 512;" xml:space="preserve">

<g>
	<g>
		<path d="M267.869,411.279l44.426-44.425c3.279-3.279,3.279-8.592,0-11.871c-3.274-3.277-8.594-3.277-11.869,0L256,399.409
			l-44.426-44.426c-3.274-3.277-8.594-3.277-11.869,0c-3.279,3.279-3.279,8.592,0,11.871l44.426,44.425l-44.426,44.425
			c-3.279,3.279-3.279,8.592,0,11.871c1.637,1.638,3.787,2.458,5.934,2.458s4.297-0.82,5.934-2.458L256,423.148l44.426,44.426
			c1.637,1.638,3.787,2.458,5.934,2.458s4.297-0.82,5.934-2.458c3.279-3.279,3.279-8.592,0-11.871L267.869,411.279z"/>
	</g>
</g>
</svg>
